#define radio7_width 17
#define radio7_height 9
static unsigned char radio7_bits[] = {
   0x11, 0x00, 0x01, 0x1f, 0x40, 0x01, 0x15, 0x50, 0x01, 0x04, 0x54, 0x01,
   0x04, 0x55, 0x01, 0x44, 0x55, 0x01, 0x54, 0x55, 0x01, 0x00, 0x00, 0x00,
   0xfc, 0xff, 0x01 };
