#define radio5_width 17
#define radio5_height 9
static unsigned char radio5_bits[] = {
   0x11, 0x00, 0x00, 0x1f, 0x00, 0x00, 0x15, 0x10, 0x00, 0x04, 0x14, 0x00,
   0x04, 0x15, 0x00, 0x44, 0x15, 0x00, 0x54, 0x15, 0x00, 0x00, 0x00, 0x00,
   0xfc, 0xff, 0x01 };
