#define radio6_width 17
#define radio6_height 9
static unsigned char radio6_bits[] = {
   0x11, 0x00, 0x00, 0x1f, 0x40, 0x00, 0x15, 0x50, 0x00, 0x04, 0x54, 0x00,
   0x04, 0x55, 0x00, 0x44, 0x55, 0x00, 0x54, 0x55, 0x00, 0x00, 0x00, 0x00,
   0xfc, 0xff, 0x01 };
