#define radio3_width 17
#define radio3_height 9
static unsigned char radio3_bits[] = {
   0x11, 0x00, 0x00, 0x1f, 0x00, 0x00, 0x15, 0x00, 0x00, 0x04, 0x00, 0x00,
   0x04, 0x01, 0x00, 0x44, 0x01, 0x00, 0x54, 0x01, 0x00, 0x00, 0x00, 0x00,
   0xfc, 0xff, 0x01 };
