#define stereo_width 6
#define stereo_height 8
static unsigned char stereo_bits[] = {
   0x1e, 0x21, 0x2d, 0x25, 0x29, 0x2d, 0x21, 0x1e };
